<svg width="183" height="47" viewBox="0 0 183 47" fill="none" xmlns="http://www.w3.org/2000/svg">
<rect width="183" height="47" fill="#FCCFCF"/>
<path d="M20.496 33.336C18.76 33.336 17.2107 32.9347 15.848 32.132C14.504 31.3107 13.4587 30.2093 12.712 28.828C11.984 27.428 11.62 25.9067 11.62 24.264C11.62 22.3413 12.1054 20.6987 13.076 19.336C14.0467 17.9547 15.288 16.9187 16.8 16.228C18.3307 15.5373 19.8894 15.192 21.476 15.192C23.2494 15.192 24.808 15.612 26.152 16.452C27.496 17.2733 28.5227 18.3653 29.232 19.728C29.96 21.0907 30.324 22.5373 30.324 24.068C30.324 25.7667 29.876 27.3253 28.98 28.744C28.084 30.1627 26.88 31.2827 25.368 32.104C23.8747 32.9253 22.2507 33.336 20.496 33.336ZM21.476 32.748C22.7454 32.748 23.884 32.44 24.892 31.824C25.9187 31.208 26.7214 30.3027 27.3 29.108C27.8974 27.9133 28.196 26.4947 28.196 24.852C28.196 23.0973 27.8694 21.5387 27.216 20.176C26.5627 18.8133 25.6387 17.7493 24.444 16.984C23.268 16.2187 21.8867 15.836 20.3 15.836C18.2467 15.836 16.6414 16.4987 15.484 17.824C14.3267 19.1493 13.748 20.9693 13.748 23.284C13.748 25.0387 14.0747 26.644 14.728 28.1C15.3814 29.5373 16.296 30.676 17.472 31.516C18.648 32.3373 19.9827 32.748 21.476 32.748ZM36.4307 16.004C35.2547 16.004 34.368 16.3027 33.7707 16.9C33.192 17.4973 32.772 18.5147 32.5107 19.952C32.5107 19.9893 32.4547 20.008 32.3427 20.008C32.2493 20.008 32.2027 19.9893 32.2027 19.952C32.2773 19.28 32.3613 18.4027 32.4547 17.32C32.548 16.2373 32.5947 15.4253 32.5947 14.884C32.5947 14.7907 32.6413 14.744 32.7347 14.744C32.8467 14.744 32.9027 14.7907 32.9027 14.884C32.9027 15.2947 33.4067 15.5 34.4147 15.5C36.0013 15.556 37.8773 15.584 40.0427 15.584C41.144 15.584 42.3107 15.5653 43.5427 15.528L45.4467 15.5C46.1187 15.5 46.6133 15.4533 46.9307 15.36C47.2667 15.2667 47.4813 15.08 47.5747 14.8C47.5933 14.7253 47.6493 14.688 47.7427 14.688C47.836 14.688 47.8827 14.7253 47.8827 14.8C47.8267 15.3413 47.7707 16.1627 47.7147 17.264C47.6587 18.3653 47.6307 19.2613 47.6307 19.952C47.6307 19.9893 47.5747 20.008 47.4627 20.008C47.3507 20.008 47.2947 19.9893 47.2947 19.952C47.2387 18.496 46.94 17.4787 46.3987 16.9C45.8573 16.3027 44.9613 16.004 43.7107 16.004C42.8707 16.004 42.2733 16.0413 41.9187 16.116C41.564 16.1907 41.3213 16.3493 41.1907 16.592C41.06 16.8347 40.9947 17.2453 40.9947 17.824V30.732C40.9947 31.3107 41.06 31.7307 41.1907 31.992C41.3213 32.2533 41.5733 32.4307 41.9467 32.524C42.32 32.6173 42.908 32.664 43.7107 32.664C43.7667 32.664 43.7947 32.72 43.7947 32.832C43.7947 32.944 43.7667 33 43.7107 33C43.0947 33 42.6 32.9907 42.2267 32.972L40.0427 32.944L37.9427 32.972C37.5693 32.9907 37.056 33 36.4027 33C36.3653 33 36.3467 32.944 36.3467 32.832C36.3467 32.72 36.3653 32.664 36.4027 32.664C37.2053 32.664 37.7933 32.6173 38.1667 32.524C38.54 32.4307 38.792 32.2533 38.9227 31.992C39.072 31.712 39.1467 31.292 39.1467 30.732V17.768C39.1467 17.1893 39.0813 16.788 38.9507 16.564C38.82 16.3213 38.5773 16.172 38.2227 16.116C37.868 16.0413 37.2707 16.004 36.4307 16.004ZM68.6248 32.664C68.6808 32.664 68.7088 32.72 68.7088 32.832C68.7088 32.944 68.6808 33 68.6248 33C68.0274 33 67.5608 32.9907 67.2248 32.972L65.3208 32.944L63.3328 32.972C62.9968 32.9907 62.5394 33 61.9608 33C61.9048 33 61.8768 32.944 61.8768 32.832C61.8768 32.72 61.9048 32.664 61.9608 32.664C62.6701 32.664 63.1928 32.6173 63.5288 32.524C63.8648 32.4307 64.0888 32.2533 64.2008 31.992C64.3128 31.712 64.3688 31.292 64.3688 30.732V17.88C64.3688 17.2453 64.3314 16.8253 64.2568 16.62C64.2008 16.4147 64.0421 16.284 63.7808 16.228C63.5194 16.172 62.9874 16.144 62.1848 16.144H56.4448C55.6048 16.144 55.0448 16.172 54.7648 16.228C54.4848 16.284 54.3074 16.424 54.2328 16.648C54.1581 16.8533 54.1208 17.264 54.1208 17.88V30.732C54.1208 31.292 54.1768 31.712 54.2888 31.992C54.4194 32.2533 54.6434 32.4307 54.9608 32.524C55.2968 32.6173 55.8288 32.664 56.5568 32.664C56.5941 32.664 56.6128 32.72 56.6128 32.832C56.6128 32.944 56.5941 33 56.5568 33C55.9781 33 55.5208 32.9907 55.1848 32.972L53.1688 32.944L51.2648 32.972C50.9288 32.9907 50.4621 33 49.8648 33C49.8274 33 49.8088 32.944 49.8088 32.832C49.8088 32.72 49.8274 32.664 49.8648 32.664C50.5741 32.664 51.0968 32.6173 51.4328 32.524C51.7874 32.4307 52.0208 32.2533 52.1328 31.992C52.2634 31.712 52.3288 31.292 52.3288 30.732V18.104C52.3288 17.5253 52.2634 17.0773 52.1328 16.76C52.0208 16.4427 51.7874 16.2093 51.4328 16.06C51.0781 15.9107 50.5648 15.836 49.8928 15.836C49.8554 15.836 49.8368 15.78 49.8368 15.668C49.8368 15.556 49.8554 15.5 49.8928 15.5C50.5274 15.5 51.1341 15.5093 51.7128 15.528C54.1394 15.5653 56.6874 15.584 59.3568 15.584C61.7834 15.584 64.5648 15.556 67.7008 15.5H68.6248C68.6808 15.5 68.7088 15.556 68.7088 15.668C68.7088 15.78 68.6808 15.836 68.6248 15.836C67.6541 15.836 67.0008 16.004 66.6648 16.34C66.3474 16.676 66.1888 17.264 66.1888 18.104V30.732C66.1888 31.292 66.2448 31.712 66.3568 31.992C66.4874 32.2533 66.7208 32.4307 67.0568 32.524C67.3928 32.6173 67.9154 32.664 68.6248 32.664ZM75.0147 30.62C75.0147 31.2173 75.0893 31.656 75.2387 31.936C75.4067 32.1973 75.7147 32.384 76.1627 32.496C76.6293 32.608 77.3573 32.664 78.3467 32.664C78.4027 32.664 78.4307 32.72 78.4307 32.832C78.4307 32.944 78.4027 33 78.3467 33C77.5813 33 76.984 32.9907 76.5547 32.972L74.1187 32.944L72.2427 32.972C71.888 32.9907 71.412 33 70.8147 33C70.7773 33 70.7587 32.944 70.7587 32.832C70.7587 32.72 70.7773 32.664 70.8147 32.664C71.524 32.664 72.0373 32.6173 72.3547 32.524C72.6907 32.4307 72.9147 32.2533 73.0267 31.992C73.1387 31.712 73.1947 31.292 73.1947 30.732V17.768C73.1947 17.208 73.1387 16.7973 73.0267 16.536C72.9147 16.2747 72.6907 16.0973 72.3547 16.004C72.0373 15.892 71.524 15.836 70.8147 15.836C70.7773 15.836 70.7587 15.78 70.7587 15.668C70.7587 15.556 70.7773 15.5 70.8147 15.5L72.2147 15.528C72.9987 15.5653 73.624 15.584 74.0907 15.584C74.5573 15.584 75.08 15.556 75.6587 15.5C75.8827 15.5 76.2373 15.4907 76.7227 15.472C77.208 15.4347 77.628 15.416 77.9827 15.416C79.7 15.416 81.072 15.7987 82.0987 16.564C83.144 17.3293 83.6667 18.496 83.6667 20.064C83.6667 21.296 83.3587 22.332 82.7427 23.172C82.1453 24.012 81.3707 24.6373 80.4187 25.048C79.4667 25.4587 78.4867 25.664 77.4787 25.664C76.9373 25.664 76.4893 25.6173 76.1347 25.524C76.0787 25.524 76.0507 25.4773 76.0507 25.384C76.0507 25.328 76.06 25.272 76.0787 25.216C76.116 25.16 76.1533 25.1413 76.1907 25.16C76.4893 25.2347 76.8253 25.272 77.1987 25.272C78.4307 25.272 79.4667 24.8707 80.3067 24.068C81.1653 23.2653 81.5947 22.108 81.5947 20.596C81.5947 19.1213 81.1933 17.964 80.3907 17.124C79.588 16.2653 78.5613 15.836 77.3107 15.836C76.6387 15.836 76.1533 15.8733 75.8547 15.948C75.556 16.0227 75.3413 16.2 75.2107 16.48C75.08 16.7413 75.0147 17.1893 75.0147 17.824V30.62ZM103.156 32.664C103.231 32.664 103.268 32.72 103.268 32.832C103.268 32.944 103.231 33 103.156 33C102.801 33 102.251 32.9813 101.504 32.944C100.757 32.9067 100.216 32.888 99.88 32.888C99.4693 32.888 98.9467 32.9067 98.312 32.944C97.7147 32.9813 97.2573 33 96.94 33C96.8653 33 96.828 32.944 96.828 32.832C96.828 32.72 96.8653 32.664 96.94 32.664C97.6307 32.664 98.1347 32.5987 98.452 32.468C98.7693 32.3373 98.928 32.1133 98.928 31.796C98.928 31.5347 98.8067 31.1333 98.564 30.592L95.344 23.732H90.052L87.644 29.444C87.3827 30.0787 87.252 30.6013 87.252 31.012C87.252 32.1133 88.1667 32.664 89.996 32.664C90.0893 32.664 90.136 32.72 90.136 32.832C90.136 32.944 90.0893 33 89.996 33C89.66 33 89.1747 32.9813 88.54 32.944C87.8307 32.9067 87.2147 32.888 86.692 32.888C86.2067 32.888 85.6467 32.9067 85.012 32.944C84.452 32.9813 83.9853 33 83.612 33C83.5187 33 83.472 32.944 83.472 32.832C83.472 32.72 83.5187 32.664 83.612 32.664C84.1347 32.664 84.5733 32.5707 84.928 32.384C85.3013 32.1787 85.6467 31.8333 85.964 31.348C86.3 30.844 86.664 30.1253 87.056 29.192L92.964 15.248C93.0013 15.192 93.0667 15.164 93.16 15.164C93.2533 15.164 93.3093 15.192 93.328 15.248L99.936 29.164C100.571 30.5453 101.112 31.4787 101.56 31.964C102.008 32.4307 102.54 32.664 103.156 32.664ZM90.304 23.144H95.064L92.544 17.824L90.304 23.144ZM112.54 23.144C114.015 23.256 115.2 23.7507 116.096 24.628C117.011 25.4867 117.468 26.56 117.468 27.848C117.468 28.8373 117.225 29.7333 116.74 30.536C116.255 31.3387 115.583 31.9733 114.724 32.44C113.884 32.888 112.941 33.112 111.896 33.112C111.28 33.112 110.608 33.084 109.88 33.028C109.619 33.0093 109.311 32.9907 108.956 32.972C108.601 32.9533 108.209 32.944 107.78 32.944L105.876 32.972C105.54 32.9907 105.064 33 104.448 33C104.411 33 104.392 32.944 104.392 32.832C104.392 32.72 104.411 32.664 104.448 32.664C105.157 32.664 105.68 32.6173 106.016 32.524C106.352 32.412 106.585 32.2253 106.716 31.964C106.847 31.7027 106.912 31.292 106.912 30.732V17.768C106.912 17.208 106.847 16.7973 106.716 16.536C106.604 16.2747 106.38 16.0973 106.044 16.004C105.708 15.892 105.195 15.836 104.504 15.836C104.448 15.836 104.42 15.78 104.42 15.668C104.42 15.556 104.448 15.5 104.504 15.5L105.876 15.528C106.66 15.5653 107.295 15.584 107.78 15.584C108.116 15.584 108.424 15.5747 108.704 15.556C109.003 15.5373 109.255 15.5187 109.46 15.5C110.039 15.444 110.58 15.416 111.084 15.416C112.652 15.416 113.828 15.7613 114.612 16.452C115.396 17.124 115.788 18.0107 115.788 19.112C115.788 20.008 115.499 20.8107 114.92 21.52C114.341 22.2107 113.548 22.752 112.54 23.144ZM110.468 15.836C109.983 15.836 109.619 15.8733 109.376 15.948C109.152 16.0227 108.984 16.2 108.872 16.48C108.76 16.76 108.704 17.208 108.704 17.824V23.144L109.964 23.172C111.327 23.172 112.335 22.8267 112.988 22.136C113.641 21.4267 113.968 20.4933 113.968 19.336C113.968 18.2907 113.679 17.4507 113.1 16.816C112.54 16.1627 111.663 15.836 110.468 15.836ZM111.476 32.608C112.839 32.608 113.847 32.2627 114.5 31.572C115.172 30.8627 115.508 29.8547 115.508 28.548C115.508 27.1293 115.088 25.9813 114.248 25.104C113.427 24.2267 112.288 23.7787 110.832 23.76C110.235 23.7413 109.525 23.76 108.704 23.816V30.732C108.704 31.2173 108.769 31.5907 108.9 31.852C109.049 32.1133 109.32 32.3093 109.712 32.44C110.123 32.552 110.711 32.608 111.476 32.608ZM138.765 32.664C138.803 32.664 138.821 32.72 138.821 32.832C138.821 32.944 138.803 33 138.765 33C138.168 33 137.701 32.9907 137.365 32.972L135.433 32.944L133.389 32.972C133.053 32.9907 132.605 33 132.045 33C132.008 33 131.989 32.944 131.989 32.832C131.989 32.72 132.008 32.664 132.045 32.664C132.773 32.664 133.305 32.6173 133.641 32.524C133.977 32.4307 134.201 32.2533 134.313 31.992C134.444 31.712 134.509 31.292 134.509 30.732V19.168L124.093 30.312V30.732C124.093 31.292 124.149 31.712 124.261 31.992C124.392 32.2533 124.625 32.4307 124.961 32.524C125.297 32.6173 125.829 32.664 126.557 32.664C126.595 32.664 126.613 32.72 126.613 32.832C126.613 32.944 126.595 33 126.557 33C125.979 33 125.521 32.9907 125.185 32.972L123.169 32.944L121.237 32.972C120.901 32.9907 120.435 33 119.837 33C119.8 33 119.781 32.944 119.781 32.832C119.781 32.72 119.8 32.664 119.837 32.664C120.547 32.664 121.069 32.6173 121.405 32.524C121.76 32.4307 121.993 32.2533 122.105 31.992C122.236 31.712 122.301 31.292 122.301 30.732V17.768C122.301 17.208 122.236 16.7973 122.105 16.536C121.993 16.2747 121.769 16.0973 121.433 16.004C121.097 15.892 120.575 15.836 119.865 15.836C119.828 15.836 119.809 15.78 119.809 15.668C119.809 15.556 119.828 15.5 119.865 15.5L121.293 15.528C122.077 15.5653 122.703 15.584 123.169 15.584C123.711 15.584 124.392 15.5653 125.213 15.528L126.557 15.5C126.595 15.5 126.613 15.556 126.613 15.668C126.613 15.78 126.595 15.836 126.557 15.836C125.848 15.836 125.316 15.892 124.961 16.004C124.625 16.116 124.392 16.312 124.261 16.592C124.149 16.8533 124.093 17.264 124.093 17.824V29.36L134.509 18.272V17.824C134.509 17.264 134.444 16.8533 134.313 16.592C134.201 16.312 133.977 16.116 133.641 16.004C133.305 15.892 132.773 15.836 132.045 15.836C132.008 15.836 131.989 15.78 131.989 15.668C131.989 15.556 132.008 15.5 132.045 15.5L133.389 15.528C134.211 15.5653 134.892 15.584 135.433 15.584C135.9 15.584 136.544 15.5653 137.365 15.528L138.765 15.5C138.803 15.5 138.821 15.556 138.821 15.668C138.821 15.78 138.803 15.836 138.765 15.836C138.056 15.836 137.533 15.892 137.197 16.004C136.861 16.0973 136.628 16.2747 136.497 16.536C136.385 16.7973 136.329 17.208 136.329 17.768V30.732C136.329 31.292 136.385 31.712 136.497 31.992C136.628 32.2533 136.861 32.4307 137.197 32.524C137.533 32.6173 138.056 32.664 138.765 32.664ZM145.067 16.004C143.891 16.004 143.005 16.3027 142.407 16.9C141.829 17.4973 141.409 18.5147 141.147 19.952C141.147 19.9893 141.091 20.008 140.979 20.008C140.886 20.008 140.839 19.9893 140.839 19.952C140.914 19.28 140.998 18.4027 141.091 17.32C141.185 16.2373 141.231 15.4253 141.231 14.884C141.231 14.7907 141.278 14.744 141.371 14.744C141.483 14.744 141.539 14.7907 141.539 14.884C141.539 15.2947 142.043 15.5 143.051 15.5C144.638 15.556 146.514 15.584 148.679 15.584C149.781 15.584 150.947 15.5653 152.179 15.528L154.083 15.5C154.755 15.5 155.25 15.4533 155.567 15.36C155.903 15.2667 156.118 15.08 156.211 14.8C156.23 14.7253 156.286 14.688 156.379 14.688C156.473 14.688 156.519 14.7253 156.519 14.8C156.463 15.3413 156.407 16.1627 156.351 17.264C156.295 18.3653 156.267 19.2613 156.267 19.952C156.267 19.9893 156.211 20.008 156.099 20.008C155.987 20.008 155.931 19.9893 155.931 19.952C155.875 18.496 155.577 17.4787 155.035 16.9C154.494 16.3027 153.598 16.004 152.347 16.004C151.507 16.004 150.91 16.0413 150.555 16.116C150.201 16.1907 149.958 16.3493 149.827 16.592C149.697 16.8347 149.631 17.2453 149.631 17.824V30.732C149.631 31.3107 149.697 31.7307 149.827 31.992C149.958 32.2533 150.21 32.4307 150.583 32.524C150.957 32.6173 151.545 32.664 152.347 32.664C152.403 32.664 152.431 32.72 152.431 32.832C152.431 32.944 152.403 33 152.347 33C151.731 33 151.237 32.9907 150.863 32.972L148.679 32.944L146.579 32.972C146.206 32.9907 145.693 33 145.039 33C145.002 33 144.983 32.944 144.983 32.832C144.983 32.72 145.002 32.664 145.039 32.664C145.842 32.664 146.43 32.6173 146.803 32.524C147.177 32.4307 147.429 32.2533 147.559 31.992C147.709 31.712 147.783 31.292 147.783 30.732V17.768C147.783 17.1893 147.718 16.788 147.587 16.564C147.457 16.3213 147.214 16.172 146.859 16.116C146.505 16.0413 145.907 16.004 145.067 16.004ZM166.117 23.116C167.891 23.116 169.272 23.4707 170.261 24.18C171.251 24.8893 171.745 26.0653 171.745 27.708C171.745 28.772 171.503 29.7147 171.017 30.536C170.551 31.3573 169.888 31.992 169.029 32.44C168.171 32.888 167.191 33.112 166.089 33.112C165.604 33.112 165.025 33.084 164.353 33.028C164.092 33.0093 163.756 32.9907 163.345 32.972C162.953 32.9533 162.515 32.944 162.029 32.944L160.181 32.972C159.827 32.9907 159.341 33 158.725 33C158.688 33 158.669 32.944 158.669 32.832C158.669 32.72 158.688 32.664 158.725 32.664C159.453 32.6453 159.976 32.5893 160.293 32.496C160.629 32.4027 160.863 32.2253 160.993 31.964C161.124 31.7027 161.189 31.292 161.189 30.732V17.768C161.189 17.208 161.124 16.7973 160.993 16.536C160.881 16.2747 160.657 16.0973 160.321 16.004C160.004 15.9107 159.491 15.8547 158.781 15.836C158.725 15.836 158.697 15.78 158.697 15.668C158.697 15.556 158.725 15.5 158.781 15.5L160.125 15.528C160.872 15.5653 161.507 15.584 162.029 15.584C162.571 15.584 163.252 15.5653 164.073 15.528L165.445 15.5C165.483 15.5 165.501 15.556 165.501 15.668C165.501 15.78 165.483 15.836 165.445 15.836C164.717 15.8547 164.185 15.9107 163.849 16.004C163.513 16.0973 163.28 16.284 163.149 16.564C163.037 16.8253 162.981 17.2453 162.981 17.824V23.424C164.045 23.2187 165.091 23.116 166.117 23.116ZM165.529 32.608C167.041 32.608 168.124 32.272 168.777 31.6C169.449 30.9093 169.785 29.836 169.785 28.38C169.785 26.7 169.412 25.496 168.665 24.768C167.919 24.04 166.836 23.676 165.417 23.676C164.689 23.676 163.877 23.7693 162.981 23.956V30.732C162.981 31.3853 163.149 31.8613 163.485 32.16C163.821 32.4587 164.503 32.608 165.529 32.608Z" fill="black"/>
</svg>
