<svg width="195" height="84" viewBox="0 0 195 84" fill="none" xmlns="http://www.w3.org/2000/svg">
<g filter="url(#filter0_d_121_196)">
<rect width="187" height="76" transform="translate(4)" fill="#EAD6D6"/>
<path d="M31.1904 30.1C31.9904 30.1 32.7988 30.175 33.6154 30.325C34.4321 30.475 35.0821 30.6917 35.5654 30.975C35.7154 31.0417 35.8071 31.1167 35.8404 31.2C35.8904 31.2667 35.9238 31.3917 35.9404 31.575L36.2154 34.375C36.2154 34.425 36.1738 34.4583 36.0904 34.475C36.0071 34.475 35.9571 34.45 35.9404 34.4C35.5738 33.1167 34.8904 32.175 33.8904 31.575C32.9071 30.9583 31.6821 30.65 30.2154 30.65C28.9488 30.65 27.8404 30.9333 26.8904 31.5C25.9404 32.05 25.2071 32.8333 24.6904 33.85C24.1738 34.8667 23.9154 36.0417 23.9154 37.375C23.9154 38.925 24.2321 40.3583 24.8654 41.675C25.5154 42.9917 26.3821 44.0333 27.4654 44.8C28.5654 45.5667 29.7488 45.95 31.0154 45.95C32.2154 45.95 33.2571 45.625 34.1404 44.975C35.0238 44.3083 35.6988 43.2917 36.1654 41.925C36.1654 41.875 36.1988 41.85 36.2654 41.85C36.3154 41.85 36.3571 41.8583 36.3904 41.875C36.4404 41.8917 36.4654 41.9167 36.4654 41.95L36.1154 44.775C36.0821 44.975 36.0404 45.1083 35.9904 45.175C35.9571 45.225 35.8654 45.2833 35.7154 45.35C34.2154 45.9833 32.6321 46.3 30.9654 46.3C28.9654 46.3 27.2904 45.9 25.9404 45.1C24.6071 44.2833 23.6238 43.25 22.9904 42C22.3571 40.75 22.0404 39.4333 22.0404 38.05C22.0404 36.5167 22.4654 35.1417 23.3154 33.925C24.1654 32.7083 25.2904 31.7667 26.6904 31.1C28.0904 30.4333 29.5904 30.1 31.1904 30.1ZM46.6891 46.3C45.1391 46.3 43.7557 45.9417 42.5391 45.225C41.3391 44.4917 40.4057 43.5083 39.7391 42.275C39.0891 41.025 38.7641 39.6667 38.7641 38.2C38.7641 36.4833 39.1974 35.0167 40.0641 33.8C40.9307 32.5667 42.0391 31.6417 43.3891 31.025C44.7557 30.4083 46.1474 30.1 47.5641 30.1C49.1474 30.1 50.5391 30.475 51.7391 31.225C52.9391 31.9583 53.8557 32.9333 54.4891 34.15C55.1391 35.3667 55.4641 36.6583 55.4641 38.025C55.4641 39.5417 55.0641 40.9333 54.2641 42.2C53.4641 43.4667 52.3891 44.4667 51.0391 45.2C49.7057 45.9333 48.2557 46.3 46.6891 46.3ZM47.5641 45.775C48.6974 45.775 49.7141 45.5 50.6141 44.95C51.5307 44.4 52.2474 43.5917 52.7641 42.525C53.2974 41.4583 53.5641 40.1917 53.5641 38.725C53.5641 37.1583 53.2724 35.7667 52.6891 34.55C52.1057 33.3333 51.2807 32.3833 50.2141 31.7C49.1641 31.0167 47.9307 30.675 46.5141 30.675C44.6807 30.675 43.2474 31.2667 42.2141 32.45C41.1807 33.6333 40.6641 35.2583 40.6641 37.325C40.6641 38.8917 40.9557 40.325 41.5391 41.625C42.1224 42.9083 42.9391 43.925 43.9891 44.675C45.0391 45.4083 46.2307 45.775 47.5641 45.775ZM74.2797 30.375C74.3297 30.375 74.3547 30.425 74.3547 30.525C74.3547 30.625 74.3297 30.675 74.2797 30.675C73.5797 30.675 73.0714 30.8667 72.7547 31.25C72.438 31.6333 72.2797 32.2583 72.2797 33.125V46.3C72.2797 46.3333 72.238 46.3583 72.1547 46.375C72.0714 46.3917 72.013 46.3833 71.9797 46.35L60.4797 32.425L60.2547 32.175V43.275C60.2547 44.1417 60.4047 44.7667 60.7047 45.15C61.0214 45.5167 61.5214 45.7 62.2047 45.7C62.2547 45.7 62.2797 45.75 62.2797 45.85C62.2797 45.95 62.2547 46 62.2047 46C61.788 46 61.4714 45.9917 61.2547 45.975L60.0047 45.95L58.7297 45.975C58.4964 45.9917 58.1547 46 57.7047 46C57.6714 46 57.6547 45.95 57.6547 45.85C57.6547 45.75 57.6714 45.7 57.7047 45.7C58.4214 45.7 58.9297 45.5167 59.2297 45.15C59.5297 44.7667 59.6797 44.1417 59.6797 43.275V31.575C59.0297 30.975 58.3714 30.675 57.7047 30.675C57.6547 30.675 57.6297 30.625 57.6297 30.525C57.6297 30.425 57.6547 30.375 57.7047 30.375L58.6297 30.4C58.8297 30.4167 59.1047 30.425 59.4547 30.425C59.8214 30.425 60.1214 30.4167 60.3547 30.4C60.588 30.3833 60.7714 30.375 60.9047 30.375C61.038 30.375 61.1297 30.4083 61.1797 30.475C61.2464 30.525 61.3464 30.65 61.4797 30.85C61.6797 31.15 61.8797 31.425 62.0797 31.675L71.7047 43.5V33.125C71.7047 32.2583 71.5547 31.6333 71.2547 31.25C70.9714 30.8667 70.488 30.675 69.8047 30.675C69.7714 30.675 69.7547 30.625 69.7547 30.525C69.7547 30.425 69.7714 30.375 69.8047 30.375L70.7797 30.4C71.2797 30.4333 71.688 30.45 72.0047 30.45C72.3047 30.45 72.7214 30.4333 73.2547 30.4L74.2797 30.375ZM79.5688 30.825C78.5188 30.825 77.7271 31.0917 77.1938 31.625C76.6771 32.1583 76.3021 33.0667 76.0688 34.35C76.0688 34.3833 76.0188 34.4 75.9188 34.4C75.8354 34.4 75.7938 34.3833 75.7938 34.35C75.8604 33.75 75.9354 32.9667 76.0188 32C76.1021 31.0333 76.1438 30.3083 76.1438 29.825C76.1438 29.7417 76.1854 29.7 76.2688 29.7C76.3688 29.7 76.4188 29.7417 76.4188 29.825C76.4188 30.1917 76.8688 30.375 77.7688 30.375C79.1854 30.425 80.8604 30.45 82.7938 30.45C83.7771 30.45 84.8188 30.4333 85.9188 30.4L87.6188 30.375C88.2188 30.375 88.6604 30.3333 88.9438 30.25C89.2438 30.1667 89.4354 30 89.5188 29.75C89.5354 29.6833 89.5854 29.65 89.6688 29.65C89.7521 29.65 89.7938 29.6833 89.7938 29.75C89.7438 30.2333 89.6938 30.9667 89.6438 31.95C89.5938 32.9333 89.5688 33.7333 89.5688 34.35C89.5688 34.3833 89.5188 34.4 89.4188 34.4C89.3188 34.4 89.2688 34.3833 89.2688 34.35C89.2188 33.05 88.9521 32.1417 88.4688 31.625C87.9854 31.0917 87.1854 30.825 86.0688 30.825C85.3188 30.825 84.7854 30.8583 84.4688 30.925C84.1521 30.9917 83.9354 31.1333 83.8188 31.35C83.7021 31.5667 83.6438 31.9333 83.6438 32.45V43.975C83.6438 44.4917 83.7021 44.8667 83.8188 45.1C83.9354 45.3333 84.1604 45.4917 84.4938 45.575C84.8271 45.6583 85.3521 45.7 86.0688 45.7C86.1188 45.7 86.1438 45.75 86.1438 45.85C86.1438 45.95 86.1188 46 86.0688 46C85.5188 46 85.0771 45.9917 84.7438 45.975L82.7938 45.95L80.9188 45.975C80.5854 45.9917 80.1271 46 79.5438 46C79.5104 46 79.4938 45.95 79.4938 45.85C79.4938 45.75 79.5104 45.7 79.5438 45.7C80.2604 45.7 80.7854 45.6583 81.1188 45.575C81.4521 45.4917 81.6771 45.3333 81.7938 45.1C81.9271 44.85 81.9938 44.475 81.9938 43.975V32.4C81.9938 31.8833 81.9354 31.525 81.8188 31.325C81.7021 31.1083 81.4854 30.975 81.1688 30.925C80.8521 30.8583 80.3188 30.825 79.5688 30.825ZM106.406 45.7C106.472 45.7 106.506 45.75 106.506 45.85C106.506 45.95 106.472 46 106.406 46C106.089 46 105.597 45.9833 104.931 45.95C104.264 45.9167 103.781 45.9 103.481 45.9C103.114 45.9 102.647 45.9167 102.081 45.95C101.547 45.9833 101.139 46 100.856 46C100.789 46 100.756 45.95 100.756 45.85C100.756 45.75 100.789 45.7 100.856 45.7C101.472 45.7 101.922 45.6417 102.206 45.525C102.489 45.4083 102.631 45.2083 102.631 44.925C102.631 44.6917 102.522 44.3333 102.306 43.85L99.4307 37.725H94.7057L92.5557 42.825C92.3223 43.3917 92.2057 43.8583 92.2057 44.225C92.2057 45.2083 93.0223 45.7 94.6557 45.7C94.739 45.7 94.7807 45.75 94.7807 45.85C94.7807 45.95 94.739 46 94.6557 46C94.3557 46 93.9223 45.9833 93.3557 45.95C92.7223 45.9167 92.1723 45.9 91.7057 45.9C91.2723 45.9 90.7723 45.9167 90.2057 45.95C89.7057 45.9833 89.289 46 88.9557 46C88.8723 46 88.8307 45.95 88.8307 45.85C88.8307 45.75 88.8723 45.7 88.9557 45.7C89.4223 45.7 89.814 45.6167 90.1307 45.45C90.464 45.2667 90.7723 44.9583 91.0557 44.525C91.3557 44.075 91.6807 43.4333 92.0307 42.6L97.3057 30.15C97.339 30.1 97.3973 30.075 97.4807 30.075C97.564 30.075 97.614 30.1 97.6307 30.15L103.531 42.575C104.097 43.8083 104.581 44.6417 104.981 45.075C105.381 45.4917 105.856 45.7 106.406 45.7ZM94.9307 37.2H99.1807L96.9307 32.45L94.9307 37.2ZM116.566 30.1C117.366 30.1 118.175 30.175 118.991 30.325C119.808 30.475 120.458 30.6917 120.941 30.975C121.091 31.0417 121.183 31.1167 121.216 31.2C121.266 31.2667 121.3 31.3917 121.316 31.575L121.591 34.375C121.591 34.425 121.55 34.4583 121.466 34.475C121.383 34.475 121.333 34.45 121.316 34.4C120.95 33.1167 120.266 32.175 119.266 31.575C118.283 30.9583 117.058 30.65 115.591 30.65C114.325 30.65 113.216 30.9333 112.266 31.5C111.316 32.05 110.583 32.8333 110.066 33.85C109.55 34.8667 109.291 36.0417 109.291 37.375C109.291 38.925 109.608 40.3583 110.241 41.675C110.891 42.9917 111.758 44.0333 112.841 44.8C113.941 45.5667 115.125 45.95 116.391 45.95C117.591 45.95 118.633 45.625 119.516 44.975C120.4 44.3083 121.075 43.2917 121.541 41.925C121.541 41.875 121.575 41.85 121.641 41.85C121.691 41.85 121.733 41.8583 121.766 41.875C121.816 41.8917 121.841 41.9167 121.841 41.95L121.491 44.775C121.458 44.975 121.416 45.1083 121.366 45.175C121.333 45.225 121.241 45.2833 121.091 45.35C119.591 45.9833 118.008 46.3 116.341 46.3C114.341 46.3 112.666 45.9 111.316 45.1C109.983 44.2833 109 43.25 108.366 42C107.733 40.75 107.416 39.4333 107.416 38.05C107.416 36.5167 107.841 35.1417 108.691 33.925C109.541 32.7083 110.666 31.7667 112.066 31.1C113.466 30.4333 114.966 30.1 116.566 30.1ZM127.64 30.825C126.59 30.825 125.798 31.0917 125.265 31.625C124.748 32.1583 124.373 33.0667 124.14 34.35C124.14 34.3833 124.09 34.4 123.99 34.4C123.907 34.4 123.865 34.3833 123.865 34.35C123.932 33.75 124.007 32.9667 124.09 32C124.173 31.0333 124.215 30.3083 124.215 29.825C124.215 29.7417 124.257 29.7 124.34 29.7C124.44 29.7 124.49 29.7417 124.49 29.825C124.49 30.1917 124.94 30.375 125.84 30.375C127.257 30.425 128.932 30.45 130.865 30.45C131.848 30.45 132.89 30.4333 133.99 30.4L135.69 30.375C136.29 30.375 136.732 30.3333 137.015 30.25C137.315 30.1667 137.507 30 137.59 29.75C137.607 29.6833 137.657 29.65 137.74 29.65C137.823 29.65 137.865 29.6833 137.865 29.75C137.815 30.2333 137.765 30.9667 137.715 31.95C137.665 32.9333 137.64 33.7333 137.64 34.35C137.64 34.3833 137.59 34.4 137.49 34.4C137.39 34.4 137.34 34.3833 137.34 34.35C137.29 33.05 137.023 32.1417 136.54 31.625C136.057 31.0917 135.257 30.825 134.14 30.825C133.39 30.825 132.857 30.8583 132.54 30.925C132.223 30.9917 132.007 31.1333 131.89 31.35C131.773 31.5667 131.715 31.9333 131.715 32.45V43.975C131.715 44.4917 131.773 44.8667 131.89 45.1C132.007 45.3333 132.232 45.4917 132.565 45.575C132.898 45.6583 133.423 45.7 134.14 45.7C134.19 45.7 134.215 45.75 134.215 45.85C134.215 45.95 134.19 46 134.14 46C133.59 46 133.148 45.9917 132.815 45.975L130.865 45.95L128.99 45.975C128.657 45.9917 128.198 46 127.615 46C127.582 46 127.565 45.95 127.565 45.85C127.565 45.75 127.582 45.7 127.615 45.7C128.332 45.7 128.857 45.6583 129.19 45.575C129.523 45.4917 129.748 45.3333 129.865 45.1C129.998 44.85 130.065 44.475 130.065 43.975V32.4C130.065 31.8833 130.007 31.525 129.89 31.325C129.773 31.1083 129.557 30.975 129.24 30.925C128.923 30.8583 128.39 30.825 127.64 30.825ZM158.919 33.125C158.919 31.4917 158.194 30.675 156.744 30.675C156.694 30.675 156.669 30.625 156.669 30.525C156.669 30.425 156.694 30.375 156.744 30.375L157.819 30.4C158.419 30.4333 158.894 30.45 159.244 30.45C159.527 30.45 159.936 30.4333 160.469 30.4L161.519 30.375C161.552 30.375 161.569 30.425 161.569 30.525C161.569 30.625 161.552 30.675 161.519 30.675C160.186 30.675 159.519 31.4917 159.519 33.125V40.225C159.519 42.1417 158.986 43.6417 157.919 44.725C156.852 45.7917 155.419 46.325 153.619 46.325C152.386 46.325 151.302 46.0833 150.369 45.6C149.452 45.1167 148.736 44.4333 148.219 43.55C147.719 42.65 147.469 41.6 147.469 40.4V32.4C147.469 31.9 147.419 31.5333 147.319 31.3C147.219 31.0667 147.019 30.9083 146.719 30.825C146.436 30.725 145.977 30.675 145.344 30.675C145.311 30.675 145.294 30.625 145.294 30.525C145.294 30.425 145.311 30.375 145.344 30.375L146.569 30.4C147.269 30.4333 147.836 30.45 148.269 30.45C148.736 30.45 149.319 30.4333 150.019 30.4L151.219 30.375C151.269 30.375 151.294 30.425 151.294 30.525C151.294 30.625 151.269 30.675 151.219 30.675C150.602 30.675 150.144 30.725 149.844 30.825C149.544 30.925 149.344 31.1 149.244 31.35C149.144 31.5833 149.094 31.95 149.094 32.45V39.525C149.094 41.475 149.536 42.975 150.419 44.025C151.319 45.0583 152.569 45.575 154.169 45.575C155.669 45.575 156.836 45.1083 157.669 44.175C158.502 43.225 158.919 41.9167 158.919 40.25V33.125ZM165.529 33.3C165.529 33.95 165.688 34.5167 166.004 35C166.321 35.4833 166.704 35.8917 167.154 36.225C167.604 36.5417 168.238 36.95 169.054 37.45C169.921 37.9667 170.596 38.4 171.079 38.75C171.563 39.1 171.971 39.55 172.304 40.1C172.654 40.6333 172.829 41.275 172.829 42.025C172.829 42.825 172.629 43.55 172.229 44.2C171.829 44.85 171.238 45.3667 170.454 45.75C169.688 46.1167 168.763 46.3 167.679 46.3C166.396 46.3 165.221 46.0083 164.154 45.425C164.071 45.375 164.013 45.3167 163.979 45.25C163.963 45.1833 163.946 45.0833 163.929 44.95L163.604 41.55C163.588 41.4833 163.621 41.4417 163.704 41.425C163.804 41.4083 163.863 41.4333 163.879 41.5C164.146 42.7 164.638 43.7333 165.354 44.6C166.088 45.4667 167.054 45.9 168.254 45.9C169.088 45.9 169.788 45.675 170.354 45.225C170.938 44.7583 171.229 44.025 171.229 43.025C171.229 42.275 171.063 41.625 170.729 41.075C170.396 40.525 169.988 40.075 169.504 39.725C169.038 39.3583 168.396 38.9333 167.579 38.45C166.779 37.9667 166.146 37.55 165.679 37.2C165.229 36.85 164.846 36.4083 164.529 35.875C164.213 35.3417 164.054 34.7167 164.054 34C164.054 33.1667 164.271 32.4583 164.704 31.875C165.154 31.275 165.729 30.8333 166.429 30.55C167.146 30.25 167.904 30.1 168.704 30.1C169.688 30.1 170.663 30.3 171.629 30.7C171.879 30.7833 172.004 30.925 172.004 31.125L172.179 34C172.179 34.0667 172.138 34.1 172.054 34.1C171.971 34.1 171.921 34.0667 171.904 34C171.771 33.1333 171.413 32.3333 170.829 31.6C170.246 30.85 169.404 30.475 168.304 30.475C167.371 30.475 166.671 30.75 166.204 31.3C165.754 31.8333 165.529 32.5 165.529 33.3Z" fill="#321616"/>
</g>
<defs>
<filter id="filter0_d_121_196" x="0" y="0" width="195" height="84" filterUnits="userSpaceOnUse" color-interpolation-filters="sRGB">
<feFlood flood-opacity="0" result="BackgroundImageFix"/>
<feColorMatrix in="SourceAlpha" type="matrix" values="0 0 0 0 0 0 0 0 0 0 0 0 0 0 0 0 0 0 127 0" result="hardAlpha"/>
<feOffset dy="4"/>
<feGaussianBlur stdDeviation="2"/>
<feComposite in2="hardAlpha" operator="out"/>
<feColorMatrix type="matrix" values="0 0 0 0 0 0 0 0 0 0 0 0 0 0 0 0 0 0 0.25 0"/>
<feBlend mode="normal" in2="BackgroundImageFix" result="effect1_dropShadow_121_196"/>
<feBlend mode="normal" in="SourceGraphic" in2="effect1_dropShadow_121_196" result="shape"/>
</filter>
</defs>
</svg>
