<svg width="55" height="55" viewBox="0 0 55 55" fill="none" xmlns="http://www.w3.org/2000/svg">
<path d="M36.9234 36.9447C45.3574 28.5058 45.3574 14.7681 36.9234 6.32917C28.4894 -2.10972 14.7595 -2.10972 6.32552 6.32917C-2.10851 14.7681 -2.10851 28.5058 6.32552 36.9447C10.4445 41.066 16.1325 43.2248 21.6245 43.2248C27.1164 43.2248 32.6083 41.066 36.9234 36.9447Z" fill="#890000"/>
<path d="M33.1967 44.4023L42.023 53.2337C43.7883 52.4487 45.5535 51.4674 47.1227 50.0936L38.1002 41.066C36.7272 42.2435 34.962 43.421 33.1967 44.4023Z" fill="#890000"/>
<path d="M21.6244 47.1498C19.8592 47.1498 18.0939 46.9536 16.3287 46.5611C16.9171 47.3461 17.5055 47.9348 18.0939 48.7198C22.2129 52.8412 27.9009 54.9999 33.3929 54.9999C34.962 54.9999 36.335 54.8037 37.9041 54.6074L29.47 45.9723C26.9202 46.7573 24.3704 47.1498 21.6244 47.1498Z" fill="#890000"/>
<path d="M48.6918 18.1044C48.1034 17.5157 47.3188 16.9269 46.5342 16.3381C47.5149 20.6557 47.3188 25.1695 45.9458 29.2909L54.576 37.7297C55.949 31.0571 53.9876 23.4033 48.6918 18.1044Z" fill="#890000"/>
<path d="M41.0423 38.1222L50.0648 47.1498C51.4377 45.5798 52.4184 43.8135 53.203 42.0472L44.3767 33.2158C43.396 34.9821 42.2192 36.7484 41.0423 38.1222Z" fill="#890000"/>
</svg>
