<svg width="195" height="84" viewBox="0 0 195 84" fill="none" xmlns="http://www.w3.org/2000/svg">
<g filter="url(#filter0_d_31_50)">
<rect width="187" height="76" transform="translate(4)" fill="#EAD6D6"/>
<path d="M40.4434 30.1C41.2434 30.1 42.0517 30.175 42.8684 30.325C43.685 30.475 44.335 30.6917 44.8184 30.975C44.9684 31.0417 45.06 31.1167 45.0934 31.2C45.1434 31.2667 45.1767 31.3917 45.1934 31.575L45.4684 34.375C45.4684 34.425 45.4267 34.4583 45.3434 34.475C45.26 34.475 45.21 34.45 45.1934 34.4C44.8267 33.1167 44.1434 32.175 43.1434 31.575C42.16 30.9583 40.935 30.65 39.4684 30.65C38.2017 30.65 37.0934 30.9333 36.1434 31.5C35.1934 32.05 34.46 32.8333 33.9434 33.85C33.4267 34.8667 33.1684 36.0417 33.1684 37.375C33.1684 38.925 33.485 40.3583 34.1184 41.675C34.7684 42.9917 35.635 44.0333 36.7184 44.8C37.8184 45.5667 39.0017 45.95 40.2684 45.95C41.4684 45.95 42.51 45.625 43.3934 44.975C44.2767 44.3083 44.9517 43.2917 45.4184 41.925C45.4184 41.875 45.4517 41.85 45.5184 41.85C45.5684 41.85 45.61 41.8583 45.6434 41.875C45.6934 41.8917 45.7184 41.9167 45.7184 41.95L45.3684 44.775C45.335 44.975 45.2934 45.1083 45.2434 45.175C45.21 45.225 45.1184 45.2833 44.9684 45.35C43.4684 45.9833 41.885 46.3 40.2184 46.3C38.2184 46.3 36.5434 45.9 35.1934 45.1C33.86 44.2833 32.8767 43.25 32.2434 42C31.61 40.75 31.2934 39.4333 31.2934 38.05C31.2934 36.5167 31.7184 35.1417 32.5684 33.925C33.4184 32.7083 34.5434 31.7667 35.9434 31.1C37.3434 30.4333 38.8434 30.1 40.4434 30.1ZM55.092 37.2C56.4087 37.3 57.467 37.7417 58.267 38.525C59.0837 39.2917 59.492 40.25 59.492 41.4C59.492 42.2833 59.2753 43.0833 58.842 43.8C58.4087 44.5167 57.8087 45.0833 57.042 45.5C56.292 45.9 55.4503 46.1 54.517 46.1C53.967 46.1 53.367 46.075 52.717 46.025C52.4837 46.0083 52.2087 45.9917 51.892 45.975C51.5753 45.9583 51.2253 45.95 50.842 45.95L49.142 45.975C48.842 45.9917 48.417 46 47.867 46C47.8337 46 47.817 45.95 47.817 45.85C47.817 45.75 47.8337 45.7 47.867 45.7C48.5003 45.7 48.967 45.6583 49.267 45.575C49.567 45.475 49.7753 45.3083 49.892 45.075C50.0087 44.8417 50.067 44.475 50.067 43.975V32.4C50.067 31.9 50.0087 31.5333 49.892 31.3C49.792 31.0667 49.592 30.9083 49.292 30.825C48.992 30.725 48.5337 30.675 47.917 30.675C47.867 30.675 47.842 30.625 47.842 30.525C47.842 30.425 47.867 30.375 47.917 30.375L49.142 30.4C49.842 30.4333 50.4087 30.45 50.842 30.45C51.142 30.45 51.417 30.4417 51.667 30.425C51.9337 30.4083 52.1587 30.3917 52.342 30.375C52.8587 30.325 53.342 30.3 53.792 30.3C55.192 30.3 56.242 30.6083 56.942 31.225C57.642 31.825 57.992 32.6167 57.992 33.6C57.992 34.4 57.7337 35.1167 57.217 35.75C56.7003 36.3667 55.992 36.85 55.092 37.2ZM53.242 30.675C52.8087 30.675 52.4837 30.7083 52.267 30.775C52.067 30.8417 51.917 31 51.817 31.25C51.717 31.5 51.667 31.9 51.667 32.45V37.2L52.792 37.225C54.0087 37.225 54.9087 36.9167 55.492 36.3C56.0753 35.6667 56.367 34.8333 56.367 33.8C56.367 32.8667 56.1087 32.1167 55.592 31.55C55.092 30.9667 54.3087 30.675 53.242 30.675ZM54.142 45.65C55.3587 45.65 56.2587 45.3417 56.842 44.725C57.442 44.0917 57.742 43.1917 57.742 42.025C57.742 40.7583 57.367 39.7333 56.617 38.95C55.8837 38.1667 54.867 37.7667 53.567 37.75C53.0337 37.7333 52.4003 37.75 51.667 37.8V43.975C51.667 44.4083 51.7253 44.7417 51.842 44.975C51.9753 45.2083 52.217 45.3833 52.567 45.5C52.9337 45.6 53.4587 45.65 54.142 45.65ZM74.6824 45.7C74.7158 45.7 74.7324 45.75 74.7324 45.85C74.7324 45.95 74.7158 46 74.6824 46C74.1491 46 73.7324 45.9917 73.4324 45.975L71.7074 45.95L69.9574 45.975C69.6574 45.9917 69.2491 46 68.7324 46C68.6991 46 68.6824 45.95 68.6824 45.85C68.6824 45.75 68.6991 45.7 68.7324 45.7C69.3658 45.7 69.8324 45.6583 70.1324 45.575C70.4324 45.4917 70.6324 45.3333 70.7324 45.1C70.8324 44.85 70.8824 44.475 70.8824 43.975V37.9C70.3324 37.9333 69.8491 38.0583 69.4324 38.275C69.0324 38.475 68.6074 38.85 68.1574 39.4C67.7241 39.9333 67.1991 40.7333 66.5824 41.8C65.7658 43.2 65.1408 44.2 64.7074 44.8C64.2908 45.4 63.9908 45.75 63.8074 45.85C63.6408 45.95 63.4158 46 63.1324 46H60.5574C60.5074 46 60.4824 45.95 60.4824 45.85C60.4824 45.75 60.5074 45.7 60.5574 45.7C61.4241 45.6833 62.1741 45.35 62.8074 44.7C63.4408 44.0333 64.2074 42.9 65.1074 41.3C65.7408 40.2 66.3241 39.4 66.8574 38.9C67.3908 38.4 68.0074 38.0667 68.7074 37.9C67.2574 37.7667 66.1491 37.375 65.3824 36.725C64.6324 36.0583 64.2574 35.2 64.2574 34.15C64.2574 33.4 64.4491 32.7333 64.8324 32.15C65.2324 31.5667 65.7741 31.1167 66.4574 30.8C67.1574 30.4667 67.9408 30.3 68.8074 30.3C69.1908 30.3 69.6324 30.325 70.1324 30.375C70.3324 30.3917 70.5658 30.4083 70.8324 30.425C71.0991 30.4417 71.3908 30.45 71.7074 30.45C72.1408 30.45 72.7074 30.4333 73.4074 30.4L74.6824 30.375C74.7158 30.375 74.7324 30.425 74.7324 30.525C74.7324 30.625 74.7158 30.675 74.6824 30.675C74.0324 30.675 73.5574 30.725 73.2574 30.825C72.9574 30.9083 72.7574 31.0667 72.6574 31.3C72.5574 31.5333 72.5074 31.9 72.5074 32.4V43.975C72.5074 44.475 72.5574 44.85 72.6574 45.1C72.7741 45.3333 72.9741 45.4917 73.2574 45.575C73.5574 45.6583 74.0324 45.7 74.6824 45.7ZM65.9574 33.525C65.9574 34.7417 66.2991 35.7167 66.9824 36.45C67.6658 37.1833 68.6574 37.55 69.9574 37.55C70.1741 37.55 70.4824 37.5333 70.8824 37.5V32.45C70.8824 31.7833 70.6824 31.3167 70.2824 31.05C69.8824 30.7667 69.3824 30.625 68.7824 30.625C66.8991 30.625 65.9574 31.5917 65.9574 33.525ZM82.9762 37.6C84.1428 37.6833 85.0845 38.0833 85.8012 38.8C86.5345 39.5167 86.9012 40.425 86.9012 41.525C86.9012 42.4417 86.6428 43.2667 86.1262 44C85.6262 44.7167 84.9428 45.2833 84.0762 45.7C83.2095 46.1 82.2512 46.3 81.2012 46.3C80.5178 46.3 79.8428 46.2167 79.1762 46.05C78.5262 45.8833 78.0178 45.65 77.6512 45.35C77.5012 45.2667 77.4095 45.2 77.3762 45.15C77.3428 45.0833 77.3178 44.9583 77.3012 44.775L77.0012 42C77.0012 41.95 77.0428 41.9167 77.1262 41.9C77.2262 41.8833 77.2845 41.9 77.3012 41.95C77.5345 43.3 78.0762 44.3 78.9262 44.95C79.7762 45.5833 80.7095 45.9 81.7262 45.9C82.8428 45.9 83.6678 45.525 84.2012 44.775C84.7512 44.025 85.0262 43.0917 85.0262 41.975C85.0262 40.625 84.6428 39.6083 83.8762 38.925C83.1262 38.225 82.0345 37.875 80.6012 37.875C80.5345 37.875 80.5012 37.825 80.5012 37.725C80.5012 37.625 80.5345 37.575 80.6012 37.575C81.9012 37.575 82.8762 37.2583 83.5262 36.625C84.1928 35.9917 84.5262 35.125 84.5262 34.025C84.5262 32.925 84.2512 32.05 83.7012 31.4C83.1512 30.75 82.4178 30.425 81.5012 30.425C80.6345 30.425 79.8595 30.75 79.1762 31.4C78.5095 32.0333 78.0095 32.975 77.6762 34.225C77.6762 34.2583 77.6428 34.275 77.5762 34.275C77.5428 34.275 77.5012 34.2667 77.4512 34.25C77.4178 34.2167 77.4012 34.1917 77.4012 34.175L77.7512 31.35C77.7845 31.15 77.8178 31.0167 77.8512 30.95C77.8845 30.8833 77.9762 30.825 78.1262 30.775C79.4095 30.325 80.6428 30.1 81.8262 30.1C83.2428 30.1 84.3262 30.425 85.0762 31.075C85.8428 31.725 86.2262 32.5333 86.2262 33.5C86.2262 34.4167 85.8928 35.2583 85.2262 36.025C84.5762 36.775 83.8262 37.3 82.9762 37.6ZM105.6 45.7C105.667 45.7 105.7 45.75 105.7 45.85C105.7 45.95 105.667 46 105.6 46C105.283 46 104.792 45.9833 104.125 45.95C103.458 45.9167 102.975 45.9 102.675 45.9C102.308 45.9 101.842 45.9167 101.275 45.95C100.742 45.9833 100.333 46 100.05 46C99.9833 46 99.95 45.95 99.95 45.85C99.95 45.75 99.9833 45.7 100.05 45.7C100.667 45.7 101.117 45.6417 101.4 45.525C101.683 45.4083 101.825 45.2083 101.825 44.925C101.825 44.6917 101.717 44.3333 101.5 43.85L98.625 37.725H93.9L91.75 42.825C91.5167 43.3917 91.4 43.8583 91.4 44.225C91.4 45.2083 92.2167 45.7 93.85 45.7C93.9333 45.7 93.975 45.75 93.975 45.85C93.975 45.95 93.9333 46 93.85 46C93.55 46 93.1167 45.9833 92.55 45.95C91.9167 45.9167 91.3667 45.9 90.9 45.9C90.4667 45.9 89.9667 45.9167 89.4 45.95C88.9 45.9833 88.4833 46 88.15 46C88.0667 46 88.025 45.95 88.025 45.85C88.025 45.75 88.0667 45.7 88.15 45.7C88.6167 45.7 89.0083 45.6167 89.325 45.45C89.6583 45.2667 89.9667 44.9583 90.25 44.525C90.55 44.075 90.875 43.4333 91.225 42.6L96.5 30.15C96.5333 30.1 96.5917 30.075 96.675 30.075C96.7583 30.075 96.8083 30.1 96.825 30.15L102.725 42.575C103.292 43.8083 103.775 44.6417 104.175 45.075C104.575 45.4917 105.05 45.7 105.6 45.7ZM94.125 37.2H98.375L96.125 32.45L94.125 37.2ZM108.646 30.825C107.596 30.825 106.804 31.0917 106.271 31.625C105.754 32.1583 105.379 33.0667 105.146 34.35C105.146 34.3833 105.096 34.4 104.996 34.4C104.913 34.4 104.871 34.3833 104.871 34.35C104.938 33.75 105.013 32.9667 105.096 32C105.179 31.0333 105.221 30.3083 105.221 29.825C105.221 29.7417 105.263 29.7 105.346 29.7C105.446 29.7 105.496 29.7417 105.496 29.825C105.496 30.1917 105.946 30.375 106.846 30.375C108.263 30.425 109.938 30.45 111.871 30.45C112.854 30.45 113.896 30.4333 114.996 30.4L116.696 30.375C117.296 30.375 117.738 30.3333 118.021 30.25C118.321 30.1667 118.513 30 118.596 29.75C118.613 29.6833 118.663 29.65 118.746 29.65C118.829 29.65 118.871 29.6833 118.871 29.75C118.821 30.2333 118.771 30.9667 118.721 31.95C118.671 32.9333 118.646 33.7333 118.646 34.35C118.646 34.3833 118.596 34.4 118.496 34.4C118.396 34.4 118.346 34.3833 118.346 34.35C118.296 33.05 118.029 32.1417 117.546 31.625C117.063 31.0917 116.263 30.825 115.146 30.825C114.396 30.825 113.863 30.8583 113.546 30.925C113.229 30.9917 113.013 31.1333 112.896 31.35C112.779 31.5667 112.721 31.9333 112.721 32.45V43.975C112.721 44.4917 112.779 44.8667 112.896 45.1C113.013 45.3333 113.238 45.4917 113.571 45.575C113.904 45.6583 114.429 45.7 115.146 45.7C115.196 45.7 115.221 45.75 115.221 45.85C115.221 45.95 115.196 46 115.146 46C114.596 46 114.154 45.9917 113.821 45.975L111.871 45.95L109.996 45.975C109.663 45.9917 109.204 46 108.621 46C108.588 46 108.571 45.95 108.571 45.85C108.571 45.75 108.588 45.7 108.621 45.7C109.338 45.7 109.863 45.6583 110.196 45.575C110.529 45.4917 110.754 45.3333 110.871 45.1C111.004 44.85 111.071 44.475 111.071 43.975V32.4C111.071 31.8833 111.013 31.525 110.896 31.325C110.779 31.1083 110.563 30.975 110.246 30.925C109.929 30.8583 109.396 30.825 108.646 30.825ZM127.441 37.175C129.024 37.175 130.257 37.4917 131.141 38.125C132.024 38.7583 132.466 39.8083 132.466 41.275C132.466 42.225 132.249 43.0667 131.816 43.8C131.399 44.5333 130.807 45.1 130.041 45.5C129.274 45.9 128.399 46.1 127.416 46.1C126.982 46.1 126.466 46.075 125.866 46.025C125.632 46.0083 125.332 45.9917 124.966 45.975C124.616 45.9583 124.224 45.95 123.791 45.95L122.141 45.975C121.824 45.9917 121.391 46 120.841 46C120.807 46 120.791 45.95 120.791 45.85C120.791 45.75 120.807 45.7 120.841 45.7C121.491 45.6833 121.957 45.6333 122.241 45.55C122.541 45.4667 122.749 45.3083 122.866 45.075C122.982 44.8417 123.041 44.475 123.041 43.975V32.4C123.041 31.9 122.982 31.5333 122.866 31.3C122.766 31.0667 122.566 30.9083 122.266 30.825C121.982 30.7417 121.524 30.6917 120.891 30.675C120.841 30.675 120.816 30.625 120.816 30.525C120.816 30.425 120.841 30.375 120.891 30.375L122.091 30.4C122.757 30.4333 123.324 30.45 123.791 30.45C124.274 30.45 124.882 30.4333 125.616 30.4L126.841 30.375C126.874 30.375 126.891 30.425 126.891 30.525C126.891 30.625 126.874 30.675 126.841 30.675C126.191 30.6917 125.716 30.7417 125.416 30.825C125.116 30.9083 124.907 31.075 124.791 31.325C124.691 31.5583 124.641 31.9333 124.641 32.45V37.45C125.591 37.2667 126.524 37.175 127.441 37.175ZM126.916 45.65C128.266 45.65 129.232 45.35 129.816 44.75C130.416 44.1333 130.716 43.175 130.716 41.875C130.716 40.375 130.382 39.3 129.716 38.65C129.049 38 128.082 37.675 126.816 37.675C126.166 37.675 125.441 37.7583 124.641 37.925V43.975C124.641 44.5583 124.791 44.9833 125.091 45.25C125.391 45.5167 125.999 45.65 126.916 45.65ZM143.739 30.1C144.539 30.1 145.348 30.175 146.164 30.325C146.981 30.475 147.631 30.6917 148.114 30.975C148.264 31.0417 148.356 31.1167 148.389 31.2C148.439 31.2667 148.473 31.3917 148.489 31.575L148.764 34.375C148.764 34.425 148.723 34.4583 148.639 34.475C148.556 34.475 148.506 34.45 148.489 34.4C148.123 33.1167 147.439 32.175 146.439 31.575C145.456 30.9583 144.231 30.65 142.764 30.65C141.498 30.65 140.389 30.9333 139.439 31.5C138.489 32.05 137.756 32.8333 137.239 33.85C136.723 34.8667 136.464 36.0417 136.464 37.375C136.464 38.925 136.781 40.3583 137.414 41.675C138.064 42.9917 138.931 44.0333 140.014 44.8C141.114 45.5667 142.298 45.95 143.564 45.95C144.764 45.95 145.806 45.625 146.689 44.975C147.573 44.3083 148.248 43.2917 148.714 41.925C148.714 41.875 148.748 41.85 148.814 41.85C148.864 41.85 148.906 41.8583 148.939 41.875C148.989 41.8917 149.014 41.9167 149.014 41.95L148.664 44.775C148.631 44.975 148.589 45.1083 148.539 45.175C148.506 45.225 148.414 45.2833 148.264 45.35C146.764 45.9833 145.181 46.3 143.514 46.3C141.514 46.3 139.839 45.9 138.489 45.1C137.156 44.2833 136.173 43.25 135.539 42C134.906 40.75 134.589 39.4333 134.589 38.05C134.589 36.5167 135.014 35.1417 135.864 33.925C136.714 32.7083 137.839 31.7667 139.239 31.1C140.639 30.4333 142.139 30.1 143.739 30.1ZM164.038 45.7C164.071 45.7 164.088 45.75 164.088 45.85C164.088 45.95 164.071 46 164.038 46C163.505 46 163.088 45.9917 162.788 45.975L161.063 45.95L159.313 45.975C159.013 45.9917 158.605 46 158.088 46C158.055 46 158.038 45.95 158.038 45.85C158.038 45.75 158.055 45.7 158.088 45.7C158.721 45.7 159.188 45.6583 159.488 45.575C159.788 45.4917 159.988 45.3333 160.088 45.1C160.188 44.85 160.238 44.475 160.238 43.975V37.9C159.688 37.9333 159.205 38.0583 158.788 38.275C158.388 38.475 157.963 38.85 157.513 39.4C157.08 39.9333 156.555 40.7333 155.938 41.8C155.121 43.2 154.496 44.2 154.063 44.8C153.646 45.4 153.346 45.75 153.163 45.85C152.996 45.95 152.771 46 152.488 46H149.913C149.863 46 149.838 45.95 149.838 45.85C149.838 45.75 149.863 45.7 149.913 45.7C150.78 45.6833 151.53 45.35 152.163 44.7C152.796 44.0333 153.563 42.9 154.463 41.3C155.096 40.2 155.68 39.4 156.213 38.9C156.746 38.4 157.363 38.0667 158.063 37.9C156.613 37.7667 155.505 37.375 154.738 36.725C153.988 36.0583 153.613 35.2 153.613 34.15C153.613 33.4 153.805 32.7333 154.188 32.15C154.588 31.5667 155.13 31.1167 155.813 30.8C156.513 30.4667 157.296 30.3 158.163 30.3C158.546 30.3 158.988 30.325 159.488 30.375C159.688 30.3917 159.921 30.4083 160.188 30.425C160.455 30.4417 160.746 30.45 161.063 30.45C161.496 30.45 162.063 30.4333 162.763 30.4L164.038 30.375C164.071 30.375 164.088 30.425 164.088 30.525C164.088 30.625 164.071 30.675 164.038 30.675C163.388 30.675 162.913 30.725 162.613 30.825C162.313 30.9083 162.113 31.0667 162.013 31.3C161.913 31.5333 161.863 31.9 161.863 32.4V43.975C161.863 44.475 161.913 44.85 162.013 45.1C162.13 45.3333 162.33 45.4917 162.613 45.575C162.913 45.6583 163.388 45.7 164.038 45.7ZM155.313 33.525C155.313 34.7417 155.655 35.7167 156.338 36.45C157.021 37.1833 158.013 37.55 159.313 37.55C159.53 37.55 159.838 37.5333 160.238 37.5V32.45C160.238 31.7833 160.038 31.3167 159.638 31.05C159.238 30.7667 158.738 30.625 158.138 30.625C156.255 30.625 155.313 31.5917 155.313 33.525Z" fill="#321616"/>
</g>
<defs>
<filter id="filter0_d_31_50" x="0" y="0" width="195" height="84" filterUnits="userSpaceOnUse" color-interpolation-filters="sRGB">
<feFlood flood-opacity="0" result="BackgroundImageFix"/>
<feColorMatrix in="SourceAlpha" type="matrix" values="0 0 0 0 0 0 0 0 0 0 0 0 0 0 0 0 0 0 127 0" result="hardAlpha"/>
<feOffset dy="4"/>
<feGaussianBlur stdDeviation="2"/>
<feComposite in2="hardAlpha" operator="out"/>
<feColorMatrix type="matrix" values="0 0 0 0 0 0 0 0 0 0 0 0 0 0 0 0 0 0 0.25 0"/>
<feBlend mode="normal" in2="BackgroundImageFix" result="effect1_dropShadow_31_50"/>
<feBlend mode="normal" in="SourceGraphic" in2="effect1_dropShadow_31_50" result="shape"/>
</filter>
</defs>
</svg>
